<?xml version="1.0" encoding="UTF-8" standalone="no"?>
<svg
   version="1.1"
   style="display: block;"
   viewBox="0 0 2048 2048"
   width="1024"
   height="1024"
   preserveAspectRatio="none"
   id="svg28"
   sodipodi:docname="logo_desktop_2.svg"
   inkscape:version="1.2.2 (b0a8486541, 2022-12-01)"
   xmlns:inkscape="http://www.inkscape.org/namespaces/inkscape"
   xmlns:sodipodi="http://sodipodi.sourceforge.net/DTD/sodipodi-0.dtd"
   xmlns="http://www.w3.org/2000/svg"
   xmlns:svg="http://www.w3.org/2000/svg">
  <defs
     id="defs28">
    <rect
       x="464.1853"
       y="537.88603"
       width="103.43962"
       height="153.86644"
       id="rect29" />
  </defs>
  <sodipodi:namedview
     id="namedview28"
     pagecolor="#ffffff"
     bordercolor="#000000"
     borderopacity="0.25"
     inkscape:showpageshadow="2"
     inkscape:pageopacity="0.0"
     inkscape:pagecheckerboard="0"
     inkscape:deskcolor="#d1d1d1"
     inkscape:zoom="0.5"
     inkscape:cx="-525"
     inkscape:cy="813"
     inkscape:window-width="2560"
     inkscape:window-height="1349"
     inkscape:window-x="0"
     inkscape:window-y="0"
     inkscape:window-maximized="1"
     inkscape:current-layer="svg28"
     showgrid="false" />
  <g
     id="g15986"
     style="display:block;stroke-width:111.59143474;stroke-dasharray:none;fill:#ffffff;fill-opacity:1;stroke:#ffffff;stroke-opacity:1"
     transform="matrix(1.4338018,0,0,1.4338018,-500.61292,-86.142876)">
    <path
       id="path2"
       style="fill:#ffffff;fill-opacity:1;stroke-width:111.59143474;stroke:#ffffff;stroke-opacity:1;stroke-dasharray:none;paint-order:normal"
       d="M 1163.2941 474.93537 C 1117.7146 541.2519 1077.1626 613.32345 1032.2914 680.30339 C 1018.6284 700.70386 1001.2605 726.81962 989.87245 748.12461 C 1049.9596 837.03614 1105.3048 933.61741 1165.1331 1021.0441 C 1183.0054 1008.648 1202.2965 998.13202 1221.1359 987.2207 L 1301.6692 940.82144 L 1436.2818 863.05343 C 1453.2413 853.25913 1470.8434 842.77035 1487.7893 833.3166 C 1516.2868 817.39235 1538.4767 803.34847 1547.2357 769.94705 C 1556.8801 733.24908 1542.9995 696.3707 1510.4835 676.36118 C 1490.2411 663.90376 1469.7512 652.5868 1449.3861 640.50807 L 1289.7772 547.70955 L 1203.8087 498.27531 C 1196.1804 493.8631 1169.8328 477.76741 1163.2941 474.93537 z M 1204.0212 617.84106 C 1206.966 619.11649 1218.831 626.36473 1222.2665 628.3518 L 1260.983 650.6156 L 1332.8663 692.4079 C 1342.0379 697.84763 1351.2636 702.94242 1360.38 708.55269 C 1375.0237 717.56411 1381.2768 734.1747 1376.9334 750.70189 C 1372.9886 765.74442 1362.9946 772.0684 1350.1608 779.23998 C 1342.5291 783.49754 1334.6031 788.22222 1326.9652 792.63313 L 1266.3391 827.6553 L 1230.0719 848.55145 C 1221.5875 853.46542 1212.8983 858.20095 1204.8494 863.78357 C 1177.9054 824.41038 1152.9815 780.91414 1125.9208 740.87225 C 1131.0495 731.2774 1138.871 719.51651 1145.0243 710.329 C 1165.2323 680.16415 1183.4942 647.70715 1204.0212 617.84106 z " />
    <path
       fill="#19a4fb"
       d="m 683.22435,215.98643 c 32.81434,-4.0376 57.29058,15.00205 84.20109,30.69746 l 72.99277,41.98476 127.4595,73.46958 c 26.2308,15.07288 57.31649,32.02153 82.36759,48.28226 -30.1458,44.35229 -59.02469,92.60731 -88.31909,137.93902 -40.5639,-24.93939 -97.548,-57.03584 -139.9305,-79.65266 -13.8401,-7.47038 -28.9743,-16.72934 -43.02824,-24.58113 l -0.20161,234.8155 c -55.68862,-1.35268 -117.90359,-0.80507 -173.67803,0.0436 l 0.0136,-268.14612 0.0722,-76.39152 c 0.0531,-30.89635 -3.6807,-60.73562 16.80562,-86.03599 16.95682,-20.94266 35.06472,-29.21402 61.24508,-32.42475 z"
       id="path3"
       style="fill:#ffffff;fill-opacity:1;stroke-width:111.59143474;stroke:#ffffff;stroke-opacity:1;stroke-dasharray:none;paint-order:normal" />
    <path
       fill="#19a4fb"
       d="m 604.82901,817.06549 174.1044,0.17709 0.11851,233.97362 c 55.99509,-31.004 127.16939,-71.37993 180.87189,-104.9176 31.5965,45.40254 60.59799,94.7419 91.83359,138.5916 l -55.33309,31.726 c -70.2412,38.0602 -138.2428,81.6102 -208.76593,119.3162 -32.77892,17.5317 -55.22682,40.9345 -94.1248,41.711 -23.95996,0.6266 -47.14482,-8.5138 -64.21062,-25.3508 -27.44723,-27.0944 -24.46534,-53.6576 -24.37135,-89.4293 0.0667,-25.0511 0.11715,-50.361 0.14167,-75.4121 z"
       id="path4"
       style="fill:#ffffff;fill-opacity:1;stroke-width:111.59143474;stroke:#ffffff;stroke-opacity:1;stroke-dasharray:none;paint-order:normal" />
  </g>
  <g
     id="g329"
     transform="matrix(1.4338018,0,0,1.4338018,-500.61292,-86.142876)"
     style="display:inline"
     sodipodi:insensitive="true">
    <g
       id="g15986-6"
       style="display:block"
       transform="translate(-9.8440464e-5,1.9164764e-4)">
      <path
         id="path2-7"
         style="fill:#305270;fill-opacity:1;stroke:none;stroke-width:55.7957;stroke-dasharray:none;stroke-opacity:1;paint-order:normal"
         d="m 1163.2941,474.93537 c -45.5795,66.31653 -86.1315,138.38808 -131.0027,205.36802 -13.663,20.40047 -31.0309,46.51623 -42.41895,67.82122 60.08715,88.91153 115.43235,185.4928 175.26065,272.91949 17.8723,-12.3961 37.1634,-22.91208 56.0028,-33.8234 l 80.5333,-46.39926 134.6126,-77.76801 c 16.9595,-9.7943 34.5616,-20.28308 51.5075,-29.73683 28.4975,-15.92425 50.6874,-29.96813 59.4464,-63.36955 9.6444,-36.69797 -4.2362,-73.57635 -36.7522,-93.58587 -20.2424,-12.45742 -40.7323,-23.77438 -61.0974,-35.85311 l -159.6089,-92.79852 -85.9685,-49.43424 c -7.6283,-4.41221 -33.9759,-20.5079 -40.5146,-23.33994 z m 40.7271,142.90569 c 2.9448,1.27543 14.8098,8.52367 18.2453,10.51074 l 38.7165,22.2638 71.8833,41.7923 c 9.1716,5.43973 18.3973,10.53452 27.5137,16.14479 14.6437,9.01142 20.8968,25.62201 16.5534,42.1492 -3.9448,15.04253 -13.9388,21.36651 -26.7726,28.53809 -7.6317,4.25756 -15.5577,8.98224 -23.1956,13.39315 l -60.6261,35.02217 -36.2672,20.89615 c -8.4844,4.91397 -17.1736,9.6495 -25.2225,15.23212 -26.944,-39.37319 -51.8679,-82.86943 -78.9286,-122.91132 5.1287,-9.59485 12.9502,-21.35574 19.1035,-30.54325 20.208,-30.16485 38.4699,-62.62185 58.9969,-92.48794 z" />
      <path
         fill="#19a4fb"
         d="m 683.22435,215.98643 c 32.81434,-4.0376 57.29058,15.00205 84.20109,30.69746 l 72.99277,41.98476 127.4595,73.46958 c 26.2308,15.07288 57.31649,32.02153 82.36759,48.28226 -30.1458,44.35229 -59.02469,92.60731 -88.31909,137.93902 -40.5639,-24.93939 -97.548,-57.03584 -139.9305,-79.65266 -13.8401,-7.47038 -28.9743,-16.72934 -43.02824,-24.58113 l -0.20161,234.8155 c -55.68862,-1.35268 -117.90359,-0.80507 -173.67803,0.0436 l 0.0136,-268.14612 0.0722,-76.39152 c 0.0531,-30.89635 -3.6807,-60.73562 16.80562,-86.03599 16.95682,-20.94266 35.06472,-29.21402 61.24508,-32.42475 z"
         id="path3-5"
         style="fill:#305270;fill-opacity:1;stroke:none;stroke-width:55.7957;stroke-dasharray:none;stroke-opacity:1;paint-order:normal" />
      <path
         fill="#19a4fb"
         d="m 604.82901,817.06549 174.1044,0.17709 0.11851,233.97362 c 55.99509,-31.004 127.16939,-71.37993 180.87189,-104.9176 31.5965,45.40254 60.59799,94.7419 91.83359,138.5916 l -55.33309,31.726 c -70.2412,38.0602 -138.2428,81.6102 -208.76593,119.3162 -32.77892,17.5317 -55.22682,40.9345 -94.1248,41.711 -23.95996,0.6266 -47.14482,-8.5138 -64.21062,-25.3508 -27.44723,-27.0944 -24.46534,-53.6576 -24.37135,-89.4293 0.0667,-25.0511 0.11715,-50.361 0.14167,-75.4121 z"
         id="path4-3"
         style="fill:#305270;fill-opacity:1;stroke:none;stroke-width:55.7957;stroke-dasharray:none;stroke-opacity:1;paint-order:normal" />
    </g>
    <text
       xml:space="preserve"
       style="font-size:24px;text-align:start;writing-mode:lr-tb;direction:ltr;text-anchor:start;opacity:0.129032;fill:#ffffff;fill-opacity:1;stroke:#000000;stroke-width:4.03"
       x="1272.3074"
       y="845.6189"
       id="text28"><tspan
         sodipodi:role="line"
         id="tspan28"
         style="stroke-width:4.03"
         x="1272.3074"
         y="845.6189" /></text>
    <g
       id="g1"
       transform="matrix(2,0,0,2,-151.69763,692.6914)">
      <g
         transform="matrix(1.73,0,0,1.73,512,384)"
         id="glyphGroup_textPair_ff2fcf36-747f-4826-a05a-ed22acc108ca">
        <g
           id="g20">
          <g
             transform="matrix(1.3889,0,0,1.3889,-54.3,0)"
             id="g10">
            <g
               id="g9" />
          </g>
        </g>
      </g>
    </g>
    <text
       xml:space="preserve"
       transform="scale(2)"
       id="text29"
       style="text-align:start;writing-mode:lr-tb;direction:ltr;white-space:pre;shape-inside:url(#rect29);display:inline;opacity:0.129032;fill:#ffffff;fill-opacity:1;stroke:#000000;stroke-width:2.015" />
    <g
       id="g3318" />
  </g>
</svg>
